#!OML:ASF F:\VICON\USERDATA\INSTALL\rory3\rory3.ASF
:FULLY-SPECIFIED
:DEGREES
1644
root -0.466543 16.832 2.62593 -545.99 -126.043 544.082
lowerback 6.94006 0.692111 -3.51531
upperback -0.231292 0.804469 4.84993
thorax -4.26679 0.519058 7.00244
lowerneck -18.6511 -7.3918 -17.9145
upperneck -11.987 -6.4263 12.1075
head 0.267203 -2.60893 6.29213
rclavicle -3.47749e-014 1.74931e-014
rhumerus -26.4613 15.8015 -85.9651
rradius 64.5216
rwrist -4.22595
rhand -17.0242 11.1439
rfingers 7.12502
rthumb 9.21199 -18.6349
lclavicle -3.47749e-014 1.74931e-014
lhumerus 54.2997 20.847 13.8072
lradius 77.9475
lwrist 2.34349
lhand -18.7016 13.12
lfingers 7.12502
lthumb 7.59316 42.9637
rfemur -15.4592 -11.1908 2.99758
rtibia 57.1649
rfoot -9.8662 13.4011
rtoes 4.84182
lfemur -7.86931 -4.25235 -19.5842
ltibia 44.4992
lfoot -25.909 -0.23314
ltoes -16.3912
1645
root -0.45571 16.8725 2.64879 -546.287 -126.314 544.342
lowerback 6.89242 0.227141 -3.41148
upperback -0.147147 0.183586 4.68976
thorax -4.05748 0.19701 6.83366
lowerneck -18.5527 -6.94647 -17.1915
upperneck -12.3644 -5.99739 12.0805
head 0.0675605 -2.4283 6.2159
rclavicle 8.40021e-015 1.11319e-014
rhumerus -27.4068 14.103 -85.3309
rradius 64.1087
rwrist -5.02388
rhand -17.7477 10.5315
rfingers 7.12502
rthumb 8.51378 -19.2769
lclavicle 8.40021e-015 1.11319e-014
lhumerus 51.905 18.7157 12.0779
lradius 79.5965
lwrist 2.22501
lhand -15.204 17.4519
lfingers 7.12502
lthumb 10.968 47.1454
rfemur -15.2364 -10.8222 2.8864
rtibia 57.004
rfoot -9.84434 12.4568
rtoes 4.48474
lfemur -7.6324 -4.45517 -19.8133
ltibia 44.0544
lfoot -25.2346 -0.734313
ltoes -15.888
1646
root -0.445097 16.9095 2.67024 -546.589 -126.56 544.619
lowerback 6.8621 -0.100994 -3.34262
upperback -0.124017 -0.250356 4.71351
thorax -3.95357 -0.0249834 6.86249
lowerneck -18.3414 -6.69498 -17.2096
upperneck -12.6565 -5.69944 12.0891
head -0.0884351 -2.28566 6.25782
rclavicle 1.99726e-014 2.06736e-014
rhumerus -28.4288 12.3967 -84.0433
rradius 63.8772
rwrist -5.59124
rhand -18.6458 10.2085
rfingers 7.12502
rthumb 7.64704 -19.6332
lclavicle 1.99726e-014 2.06736e-014
lhumerus 49.6827 16.3197 11.1547
lradius 81.1272
lwrist 1.71244
lhand -14.0117 18.8287
lfingers 7.12502
lthumb 12.1178 48.4578
rfemur -15.112 -10.351 2.77115
rtibia 56.9802
rfoot -9.60164 11.5558
rtoes 4.75447
lfemur -7.40722 -4.63275 -20.033
ltibia 43.6029
lfoot -24.5834 -1.1891
ltoes -15.891
1647
root -0.437484 16.95 2.69322 -546.693 -126.423 544.865
lowerback 6.60943 -0.118289 -3.2486
upperback -0.195927 -0.255194 4.99028
thorax -3.88563 -0.0284724 7.10289
lowerneck -17.9928 -6.74338 -18.2384
upperneck -12.6853 -5.63121 12.2062
head -0.131232 -2.21716 6.47519
rclavicle 6.81086e-014 -5.725e-014
rhumerus -29.5222 10.6728 -81.9159
rradius 63.667
rwrist -5.89941
rhand -19.6199 10.1826
rfingers 7.12502
rthumb 6.70675 -19.6912
lclavicle 6.81086e-014 -5.725e-014
lhumerus 47.8299 13.6348 11.228
lradius 82.5212
lwrist 1.3698
lhand -14.8202 18.4733
lfingers 7.12502
lthumb 11.3382 48.1468
rfemur -15.425 -9.64201 2.78225
rtibia 57.0923
rfoot -9.33131 10.5888
rtoes 3.03781
lfemur -7.27251 -4.59087 -20.1923
ltibia 43.0938
lfoot -23.9879 -1.51222
ltoes -15.8435
1648
root -0.431188 16.9927 2.71288 -546.819 -125.716 545.302
lowerback 6.2726 0.0551925 -3.31557
upperback -0.273775 -0.0190785 5.14041
thorax -3.81255 0.0915335 7.27673
lowerneck -17.8942 -6.68406 -18.5945
upperneck -12.4959 -5.51072 12.1575
head -0.102613 -2.14713 6.52389
rclavicle 3.69491e-014 6.36111e-015
rhumerus -30.5948 9.2215 -79.9417
rradius 63.6731
rwrist -6.35107
rhand -20.7455 9.77264
rfingers 7.12502
rthumb 5.62005 -20.1328
lclavicle 3.69491e-014 6.36111e-015
lhumerus 46.3379 10.9218 11.3797
lradius 83.6981
lwrist 1.12276
lhand -15.0415 18.5702
lfingers 7.12502
lthumb 11.1247 48.2553
rfemur -16.2171 -8.4573 2.77591
rtibia 57.3146
rfoot -8.80703 9.56221
rtoes 2.10955
lfemur -7.16714 -4.31947 -20.4547
ltibia 42.5179
lfoot -23.4913 -1.44131
ltoes -15.9977
1649
root -0.420511 17.0327 2.73371 -547.091 -125.016 545.737
lowerback 6.06127 0.149614 -3.28404
upperback -0.219087 0.110059 5.1626
thorax -3.6557 0.149231 7.26624
lowerneck -18.2978 -6.49416 -18.2699
upperneck -11.9937 -5.26879 11.8485
head 0.0462861 -2.03881 6.37234
rclavicle -8.15203e-014 -6.36111e-015
rhumerus -31.3657 8.06877 -78.1778
rradius 63.9266
rwrist -6.64663
rhand -21.1805 9.13177
rfingers 7.12502
rthumb 5.20009 -20.7844
lclavicle -8.15203e-014 -6.36111e-015
lhumerus 44.9039 8.33023 11.4065
lradius 84.6616
lwrist 0.703131
lhand -14.6328 18.8816
lfingers 7.12502
lthumb 11.5189 48.5451
rfemur -16.9328 -7.33682 2.67429
rtibia 57.6355
rfoot -7.92984 8.59466
rtoes 3.1069
lfemur -6.8519 -4.11987 -20.7413
ltibia 41.8399
lfoot -23.0643 -1.34457
ltoes -16.5847
1650
root -0.401533 17.0675 2.76328 -547.453 -124.978 546.016
lowerback 6.02427 -0.121722 -2.90276
upperback -0.103643 -0.232148 5.12388
thorax -3.46351 -0.0388064 7.03069
lowerneck -18.6541 -6.16398 -17.9059
upperneck -11.5521 -4.86247 11.5328
head 0.148888 -1.85237 6.22919
rclavicle -1.02141e-014 -1.27222e-014
rhumerus -31.8035 7.29072 -76.565
rradius 64.1864
rwrist -6.58647
rhand -21.3804 8.84496
rfingers 7.12502
rthumb 5.00704 -21.0759
lclavicle -1.02141e-014 -1.27222e-014
lhumerus 43.1352 5.77746 11.3125
lradius 85.4192
lwrist 0.146856
lhand -15.088 19.0081
lfingers 7.12502
lthumb 11.0799 48.6957
rfemur -17.2205 -6.78274 2.4867
rtibia 58.0244
rfoot -7.14267 7.5825
rtoes 4.1008
lfemur -6.3611 -4.60773 -21.0517
ltibia 41.0868
lfoot -22.5446 -1.45218
ltoes -16.3904
1651
root -0.388725 17.1024 2.78619 -547.881 -124.585 546.409
lowerback 6.00139 -0.255635 -2.73327
upperback -0.0187092 -0.403644 5.11301
thorax -3.33841 -0.133818 6.93344
lowerneck -18.6913 -5.84716 -17.6287
upperneck -11.3856 -4.50662 11.2836
head 0.139317 -1.69129 6.12785
rclavicle 3.50172e-014 7.95139e-015
rhumerus -32.163 6.51185 -74.9309
rradius 64.3673
rwrist -6.53021
rhand -21.923 8.98006
rfingers 7.12502
rthumb 4.48312 -20.9525
lclavicle 3.50172e-014 7.95139e-015
lhumerus 41.3381 3.20742 11.3924
lradius 86.1599
lwrist -0.557212
lhand -15.6397 19.1024
lfingers 7.12502
lthumb 10.5477 48.8177
rfemur -17.7479 -6.01575 2.37663
rtibia 58.4759
rfoot -6.45654 6.48289
rtoes 2.93175
lfemur -5.82381 -4.74547 -21.3448
ltibia 40.2582
lfoot -22.0744 -1.60899
ltoes -16.3705
1652
root -0.376193 17.1312 2.80775 -548.502 -124.097 547.145
lowerback 5.96079 -0.286003 -2.82834
upperback 0.00877878 -0.451849 5.11518
thorax -3.27953 -0.158749 6.99374
lowerneck -18.4823 -5.67063 -17.7091
upperneck -11.4727 -4.29898 11.247
head 0.0554342 -1.59092 6.14942
rclavicle -4.28629e-014 -4.92986e-014
rhumerus -32.6067 5.74832 -73.1036
rradius 64.5626
rwrist -6.32463
rhand -22.1587 9.31576
rfingers 7.12502
rthumb 4.25549 -20.6215
lclavicle -4.28629e-014 -4.92986e-014
lhumerus 39.6703 0.546806 11.9738
lradius 86.8248
lwrist -1.21589
lhand -15.9719 19.3754
lfingers 7.12502
lthumb 10.2273 49.1068
rfemur -18.493 -5.3785 2.04216
rtibia 59.0077
rfoot -5.80344 5.50794
rtoes 2.06394
lfemur -5.34821 -4.80182 -21.8464
ltibia 39.4079
lfoot -21.727 -1.55289
ltoes -17.1367
